<?xml version="1.0" encoding="UTF-8"?>
<svg xmlns="http://www.w3.org/2000/svg" xmlns:xlink="http://www.w3.org/1999/xlink" width="48pt" height="48pt" viewBox="0 0 48 48" version="1.1">
<g id="surface10063432">
<path style=" stroke:none;fill-rule:nonzero;fill:rgb(32.941177%,43.137255%,47.843137%);fill-opacity:1;" d="M 37 42 L 11 42 C 8.800781 42 7 40.199219 7 38 L 7 34 L 41 34 L 41 38 C 41 40.199219 39.199219 42 37 42 Z M 37 42 "/>
<path style=" stroke:none;fill-rule:nonzero;fill:rgb(18.431373%,18.82353%,21.960784%);fill-opacity:1;" d="M 39 37 L 9 37 C 7.898438 37 7 36.101562 7 35 L 7 8 C 7 6.898438 7.898438 6 9 6 L 39 6 C 40.101562 6 41 6.898438 41 8 L 41 35 C 41 36.101562 40.101562 37 39 37 Z M 39 37 "/>
<path style=" stroke:none;fill-rule:nonzero;fill:rgb(100%,100%,100%);fill-opacity:1;" d="M 28.398438 27.699219 L 26 27.699219 L 22.101562 19.800781 L 22 19.800781 L 22 27.699219 L 19.601562 27.699219 L 19.601562 15.300781 L 22 15.300781 L 25.898438 23.199219 L 26 23.199219 L 26 15.300781 L 28.398438 15.300781 Z M 28.398438 27.699219 "/>
<path style=" stroke:none;fill-rule:nonzero;fill:rgb(19.607843%,47.058824%,78.431374%);fill-opacity:1;" d="M 30.054688 25.710938 C 30.054688 25.144531 30.222656 24.671875 30.5625 24.292969 C 30.898438 23.914062 31.402344 23.726562 32.078125 23.726562 C 32.75 23.726562 33.261719 23.914062 33.609375 24.292969 C 33.957031 24.671875 34.128906 25.144531 34.128906 25.710938 C 34.128906 26.253906 33.957031 26.707031 33.609375 27.074219 C 33.261719 27.441406 32.75 27.625 32.078125 27.625 C 31.402344 27.625 30.898438 27.441406 30.5625 27.074219 C 30.222656 26.707031 30.054688 26.253906 30.054688 25.710938 Z M 30.054688 25.710938 "/>
</g>
</svg>
