<svg width="100" height="100" viewBox="0 0 100 100" fill="none" xmlns="http://www.w3.org/2000/svg">
<path d="M40.6445 61.0352C39.4531 59.375 37.9297 57.8711 35.8984 57.3242C33.9258 56.7969 31.8554 56.9141 29.9414 57.6367C25.625 59.2774 22.4219 63.1836 22.5195 67.9297C22.6172 72.7344 25.6836 76.7383 29.6484 79.1797C29.9609 79.043 30.332 79.0625 30.664 79.3555C32.7734 81.2695 36.0156 80.4492 38.2617 79.1992C40.7812 77.8125 42.8515 75.8203 43.4961 72.9102C44.375 68.8281 43.0469 64.375 40.6445 61.0352Z" fill="#D6E5E5"/>
<path d="M71.6602 84.7852C71.0938 84.7852 70.5273 84.7852 69.9414 84.7852C69.4922 84.7852 69.1797 84.5703 69.0039 84.2578C67.8906 84.8828 66.7578 85.4492 65.6055 85.9766C65.5859 86.4844 65.293 86.9922 64.668 87.1289C65.0195 87.0508 65.1758 86.9336 65.2148 86.8945C65.1953 86.9141 65.1758 86.9336 65.1563 86.9922C65.0586 87.1875 64.9805 87.3828 64.9023 87.5781C64.7266 88.0664 64.5703 88.5547 64.4336 89.0625C64.2969 89.5899 64.1602 90.1172 64.043 90.6641C64.0039 90.8789 63.9648 91.0938 63.9258 91.3086C63.9258 91.3281 63.8867 91.7383 63.9063 91.4649C63.9063 91.5821 63.8867 91.6992 63.8477 91.7969C64.6289 91.836 65.3906 91.8555 66.1719 91.875C67.5586 91.8946 68.9648 91.875 70.3516 91.7969C69.707 90.9375 70.6055 88.8281 70.8008 88.0274C71.0938 86.9336 71.3867 85.8594 71.6602 84.7852Z" fill="#127274"/>
<path d="M41.8554 31.9141C41.6796 29.8828 41.1523 27.8125 39.6874 26.2891C38.2616 24.8242 36.4257 23.8672 34.414 23.5156C29.8827 22.7149 25.1171 24.4336 22.7538 28.5547C20.371 32.7344 20.957 37.7344 23.1054 41.875C23.4374 41.9141 23.7499 42.1094 23.8866 42.5391C24.7265 45.2734 27.9296 46.2109 30.5077 46.2891C33.3788 46.3867 36.1718 45.7227 38.2031 43.5742C41.0741 40.5469 42.207 36.0352 41.8554 31.9141ZM72.1288 26.8164C71.1523 25.0195 69.6484 23.6133 67.7929 22.7149C63.6327 20.7227 58.5937 21.0938 55.2148 24.4336C51.7968 27.8125 51.0156 32.793 51.9531 37.3438C52.2656 37.4609 52.5195 37.7539 52.5195 38.2031C52.5781 41.0547 55.4101 42.832 57.871 43.6133C60.6054 44.4727 63.4765 44.6094 66.0156 43.0664C69.6093 40.8984 71.8945 36.875 72.6757 32.8125C73.0859 30.8008 73.1249 28.6719 72.1288 26.8164Z" fill="#D6E5E5"/>
<path d="M88.1836 85.9961C88.0859 85.332 87.9883 84.668 87.9492 84.0039C87.8516 82.7148 87.9883 81.4258 88.0859 80.1367C86.2695 81.8164 84.082 83.0273 81.6797 83.7109C81.6602 85.8008 81.5234 87.8711 81.5039 89.9609C82.4219 89.6875 83.3203 89.375 84.2188 89.043C85.4883 88.5547 86.8945 88.0664 88.0859 87.3242C88.1445 87.207 88.2227 87.1094 88.3398 87.0117C88.2812 86.6601 88.2227 86.3281 88.1836 85.9961ZM79.5313 84.1992C77.6563 84.5312 75.7812 84.6875 73.8867 84.7461C73.6133 85.7812 73.3398 86.7969 73.0664 87.832C72.8711 88.5547 72.6953 89.2969 72.5195 90.039C72.4609 90.3125 72.4023 90.5664 72.3438 90.8398C72.3438 90.8789 72.3242 90.918 72.3242 90.9375C72.3633 91.1914 72.2852 91.4453 72.1484 91.6601C74.2383 91.4844 76.3086 91.1914 78.3789 90.7617C78.6523 90.7031 78.9453 90.6445 79.2188 90.5664C79.1797 90.293 79.2383 90.039 79.3555 89.8047C79.3945 87.9492 79.5117 86.0742 79.5313 84.1992ZM53.0469 89.6875C52.4805 89.7656 51.9336 89.8437 51.3672 89.9023C51.875 90.0195 52.4023 90.1172 52.9102 90.2344C53.0078 90.039 53.0859 89.8633 53.1641 89.668C53.125 89.668 53.0859 89.668 53.0469 89.6875ZM62.7734 87.168C60.4102 88.0469 57.9883 88.75 55.5078 89.2578C55.5273 89.4531 55.5078 89.668 55.4102 89.8633C55.2734 90.1367 55.1758 90.4101 55.0586 90.6836C57.2852 91.1328 59.5117 91.4453 61.7773 91.6406V91.6211C61.8164 90.332 62.1875 89.043 62.5781 87.832C62.6367 87.6172 62.6953 87.4023 62.7734 87.168Z" fill="#127274"/>
<path d="M84.4922 38.0859C82.5586 31.9922 78.0078 27.4023 72.6953 23.9453C74.7071 26.4258 75.4297 29.6484 74.8047 32.9687C74.0235 37.0703 71.9532 41.1719 68.6328 43.8086C65.4688 46.3086 61.5235 46.9336 57.7149 45.7226C54.9805 44.8633 51.9922 43.1836 50.8985 40.4883C50.7422 40.3711 50.6055 40.2148 50.5274 39.9609C48.5157 33.7695 49.4141 26.1133 54.9219 21.9726C57.6563 19.9219 61.0352 19.1211 64.2969 19.4922C63.7696 19.2578 63.2422 19.043 62.7344 18.8281C57.3047 16.6211 51.0938 15.2539 45.2344 15.5469C39.8242 15.8203 34.6094 17.6953 30.0586 20.6055C29.4727 20.9766 28.8867 21.3672 28.3203 21.7773C31.1133 20.918 34.1992 20.9766 37.0313 22.0703C41.1133 23.6328 43.5742 27.168 43.9453 31.4844C44.2969 35.6445 43.418 40.1562 40.9375 43.5937C38.5742 46.8555 34.9414 48.5156 30.9375 48.3789C28.0664 48.2812 24.7461 47.4805 22.9492 45.1758C22.7539 45.1172 22.5782 44.9805 22.4414 44.7656C19.7852 40.7617 18.418 35.5664 19.5899 30.918C19.4727 31.1133 19.375 31.2891 19.2578 31.4844C16.7774 35.9375 15.8594 40.8984 15.4492 45.8984C15.4297 46.1719 15.3321 46.3672 15.1953 46.5039C13.8867 52.6367 13.8867 59.1992 15.7227 65.2148C17.461 70.8398 20.7617 76.25 25.8594 79.375C26.4258 79.7265 26.9922 80.0195 27.5586 80.3125C23.1055 77.1484 19.8438 72.1289 20.5078 66.4844C21.1719 60.7226 25.7227 56.0742 31.4258 55.0781C35.7422 54.3359 39.668 56.1133 42.1875 59.6289C44.6289 63.0273 46.1719 67.3437 45.8008 71.5625C45.4297 75.5664 43.1641 78.8672 39.668 80.8008C38.3399 81.543 36.7969 82.168 35.2344 82.4414C36.4844 82.5781 37.7539 82.6367 39.0235 82.6367C44.9805 82.6367 50.7617 81.5039 56.543 80.1953C58.4375 79.7656 60.3125 79.2383 62.1485 78.5937C60.0782 78.4765 58.0469 77.7734 56.211 76.5429C53.8282 74.9609 51.4258 72.5195 51.1133 69.6094C50.9766 69.4531 50.8985 69.2578 50.8985 69.0039C50.6836 62.5 53.6524 55.3906 60.0977 52.9297C65.5274 50.8789 71.7383 52.7539 75.2539 57.3633C77.9102 60.8398 78.1446 65.1562 76.1719 69.0039C76.0157 69.3164 75.8594 69.6094 75.6836 69.9023C77.3047 68.1445 78.7305 66.2109 79.961 64.1406C84.4532 56.5625 87.2461 46.7969 84.4922 38.0859ZM47.5 51.9726C46.7969 52.1289 46.0742 52.168 45.3711 51.9726C45.0391 51.875 44.7266 51.7187 44.4336 51.543C44.2383 51.4062 43.9453 51.0742 43.75 50.9961C43.3594 50.8398 42.9688 50.332 42.7344 49.8242C42.461 49.6875 42.2852 49.4141 42.2657 49.0039C42.2266 46.9531 43.5157 45.0781 45.5469 44.5703C47.2657 44.1406 49.336 44.4726 50.1953 46.1914C51.3867 48.5156 50.0196 51.3867 47.5 51.9726Z" fill="#BCBCBC"/>
<path d="M75.293 62.3633C74.8633 60.3711 73.7891 58.5938 72.2656 57.2266C68.8281 54.1602 63.8672 53.1055 59.707 55.3906C55.4883 57.6953 53.3594 62.2461 53.0078 66.8945C53.2812 67.1094 53.4375 67.4414 53.3203 67.8711C52.5977 70.625 54.8242 73.125 56.9727 74.5508C59.3555 76.1328 62.0898 77.0508 64.9609 76.2891C69.0039 75.1953 72.3437 71.9531 74.1992 68.2813C75.0977 66.4649 75.7422 64.4141 75.293 62.3633Z" fill="#D6E5E5"/>
<path d="M88.2812 33.418C84.414 25.586 77.1484 19.3945 69.4336 15.5078C61.6992 11.6016 52.7539 9.53127 44.1015 10.8985C27.5976 13.4961 11.6797 27.1094 10.7617 44.4922C10.7422 44.8828 10.5078 45.1563 10.2343 45.3125C9.99996 46.8555 9.84371 48.418 9.70699 49.9805C9.55074 51.6406 9.49215 53.3008 9.51168 54.9805C9.57028 58.2422 9.94137 61.5235 10.7617 64.6875C12.3242 70.7227 15.3711 76.4063 20.1562 80.4883C23.457 83.2813 27.3047 85.1367 31.4453 86.3282C35.9765 87.6367 40.664 88.3985 45.3906 88.3985C54.707 88.418 64.0429 85.8789 71.7187 80.4883C85.8984 70.5078 96.6015 50.3321 88.2812 33.418ZM84.6484 59.4141C82.9297 63.5547 80.5664 67.5 77.6172 70.8985C74.375 74.6289 70.1367 77.4805 65.625 79.4336C60.7422 81.5625 55.4101 82.7149 50.1953 83.6524C44.5508 84.668 38.5156 85.2735 32.832 84.2383C24.8047 82.7539 18.5547 77.2071 15.2343 69.8828C11.8359 62.4024 11.4257 53.7891 13.1836 45.8203C13.1445 45.6641 13.1445 45.5078 13.2031 45.3125C13.2617 45.0781 13.3398 44.8633 13.457 44.668C13.457 44.6289 13.457 44.5899 13.457 44.5703C13.9257 39.6485 14.9609 34.6485 17.4804 30.3321C20.039 25.9571 23.8476 22.2266 28.0468 19.4141C32.3437 16.543 37.3242 14.336 42.5 13.711C48.4375 12.9883 54.4336 13.9649 60.0976 15.7617C65.0976 17.3438 69.9219 19.6485 74.2773 22.5977C78.3594 25.3516 82.3242 28.8672 84.668 33.2617C89.0234 41.3867 88.1055 51.1328 84.6484 59.4141Z" fill="#127274"/>
<path d="M48.125 46.8359C46.7773 45.7227 44.6484 46.9336 44.3945 48.4961C44.4141 48.5156 44.4531 48.5547 44.4727 48.5742C44.5117 48.6133 44.5508 48.6719 44.5703 48.7109C44.6289 48.7891 44.668 48.8867 44.707 48.9648C44.7461 49.0234 44.7852 49.082 44.8242 49.1211C44.7852 49.043 45.293 49.5508 45.3906 49.6289C46.0156 50.0977 46.9922 50.1172 47.6563 49.668C48.457 49.1406 49.0234 47.5977 48.125 46.8359Z" fill="#127274"/>
<path d="M91.7774 55.2343C94.1407 46.5429 93.0079 37.3242 88.2227 29.6484C83.6719 22.3437 76.2891 16.6992 68.5743 13.0859C60.7422 9.43357 51.7774 7.75388 43.2032 9.23825C26.7774 12.0898 11.1719 25.2539 9.14066 42.3437C9.12113 42.5781 9.08207 42.8125 9.06254 43.0273C8.88676 43.1445 8.75004 43.3203 8.69144 43.5937C8.20316 45.9961 7.98832 48.457 7.81254 50.8984C7.65629 52.9687 7.65629 55.039 7.77347 57.1093C8.00785 61.1328 8.80863 65.1562 10.1953 68.9453C12.9688 76.5039 18.418 82.7929 25.7618 86.1718C29.9414 88.1054 34.5703 89.1992 39.1211 89.7851C40 89.9023 40.8594 89.9804 41.7383 90.0586C41.875 90.4883 42.2266 90.8398 42.793 90.8593C46.8164 90.8984 50.7227 91.9922 54.6485 92.8125C58.6133 93.6523 62.6758 93.9648 66.7188 94.0234C70.8008 94.082 74.9024 93.6914 78.9063 92.8515C80.9766 92.4218 82.9492 91.7968 84.9219 91.0742C86.6211 90.4492 88.5743 89.7265 89.9805 88.6133C90.2149 88.4375 90.3321 88.2226 90.4102 88.0078C90.8008 87.0312 90.2539 85.4101 90.1368 84.5312C89.8438 82.0898 90.4493 79.6484 90.2735 77.207C90.2149 76.3281 88.9649 75.8203 88.3985 76.582C86.3086 79.3945 83.4961 81.0742 80.1367 81.914C77.4024 82.5976 74.5118 82.6562 71.6797 82.6562C73.7891 81.2695 75.8008 79.707 77.6563 77.9687C84.2383 71.8359 89.4141 63.9453 91.7774 55.2343ZM81.6797 83.7109C84.0821 83.0273 86.2696 81.8164 88.086 80.1367C87.9883 81.4257 87.8516 82.7148 87.9492 84.0039C87.9883 84.6679 88.086 85.332 88.1836 85.9961C88.2422 86.3281 88.2813 86.6601 88.3204 86.9921C88.2032 87.0898 88.125 87.1875 88.0664 87.3046C86.875 88.0468 85.4688 88.5546 84.1993 89.0234C83.3008 89.3554 82.4024 89.6679 81.4844 89.9414C81.543 87.8906 81.6602 85.8008 81.6797 83.7109ZM72.3242 90.9375C72.3242 90.8984 72.3438 90.8789 72.3438 90.8398C72.4024 90.5664 72.461 90.3125 72.5196 90.039C72.6953 89.2968 72.8711 88.5742 73.0664 87.832C73.3399 86.7968 73.6133 85.7812 73.8867 84.7461C75.7813 84.6875 77.6758 84.5312 79.5313 84.1992C79.5118 86.0742 79.3946 87.9492 79.3555 89.8242C79.2188 90.0586 79.1602 90.3125 79.2188 90.5859C78.9454 90.6445 78.6524 90.7226 78.3789 90.7812C76.3282 91.2109 74.2383 91.5039 72.1485 91.6796C72.3047 91.4453 72.3828 91.1914 72.3242 90.9375ZM52.9102 90.2343C52.4024 90.1171 51.875 90 51.3672 89.9023C51.9336 89.8437 52.4805 89.7656 53.0469 89.6875C53.086 89.6875 53.125 89.6679 53.1641 89.6679C53.086 89.8633 53.0078 90.039 52.9102 90.2343ZM62.5782 87.832C62.1875 89.0429 61.8164 90.3515 61.7774 91.6211V91.6406C59.5313 91.4453 57.2852 91.1328 55.0586 90.6836C55.1758 90.4101 55.2735 90.1367 55.4102 89.8633C55.5079 89.6679 55.5274 89.4531 55.5079 89.2578C57.9883 88.7695 60.4297 88.0664 62.7735 87.1679C62.6953 87.4023 62.6368 87.6172 62.5782 87.832ZM70.8204 88.0078C70.625 88.8086 69.7266 90.9179 70.3711 91.7773C68.9844 91.8554 67.5782 91.875 66.1914 91.8554C65.4102 91.8554 64.6485 91.8164 63.8672 91.7773C63.9063 91.6796 63.9258 91.5625 63.9258 91.4453C63.9258 91.7187 63.9453 91.3086 63.9453 91.289C63.9649 91.0742 64.0235 90.8593 64.0625 90.6445C64.1602 90.0976 64.2969 89.5703 64.4532 89.0429C64.5899 88.5351 64.7461 88.0468 64.9219 87.5586C65 87.3632 65.0782 87.1679 65.1758 86.9726C65.1954 86.914 65.2149 86.8945 65.2344 86.875C65.1953 86.914 65.0391 87.0507 64.6875 87.1093C65.293 86.9921 65.6055 86.4648 65.625 85.957C66.7774 85.4297 67.9102 84.8632 69.0235 84.2382C69.1993 84.5312 69.5313 84.7656 69.961 84.7656C70.5274 84.7656 71.0938 84.7656 71.6797 84.7656C71.3868 85.8593 71.0938 86.9336 70.8204 88.0078ZM45.3907 88.3984C40.6836 88.3789 35.9766 87.6367 31.4453 86.3281C27.3047 85.1172 23.4571 83.2812 20.1563 80.4883C15.3711 76.4062 12.3243 70.7226 10.7618 64.6875C9.94144 61.5234 9.57035 58.2422 9.51176 54.9804C9.47269 53.3203 9.55082 51.6406 9.70707 49.9804C9.84379 48.4179 10 46.8554 10.2344 45.3125C10.5274 45.1562 10.7422 44.8828 10.7618 44.4922C11.6797 27.0898 27.5977 13.4961 44.1016 10.8984C52.7539 9.53122 61.6993 11.6015 69.4336 15.5078C77.1485 19.414 84.4141 25.5859 88.2813 33.4179C96.6016 50.3125 85.8985 70.5078 71.7188 80.4883C64.0625 85.8984 54.7071 88.4375 45.3907 88.3984Z" fill="black"/>
<path d="M50.2147 46.1914C49.3358 44.4727 47.2655 44.1406 45.5663 44.5703C43.535 45.0977 42.246 46.9531 42.285 49.0039C42.285 49.4141 42.4804 49.668 42.7538 49.8242C42.9686 50.332 43.3788 50.8203 43.7694 50.9961C43.9647 51.0742 44.2577 51.4258 44.453 51.543C44.746 51.7188 45.0585 51.875 45.3905 51.9727C46.0936 52.168 46.8163 52.1289 47.5194 51.9727C50.0194 51.3867 51.3866 48.5156 50.2147 46.1914ZM47.6366 49.6875C46.9725 50.1367 45.996 50.1172 45.371 49.6484C45.2733 49.5703 44.7655 49.0625 44.8046 49.1406C44.7655 49.082 44.7264 49.0234 44.6874 48.9844C44.6483 48.9063 44.6093 48.8086 44.5507 48.7305C44.5116 48.6719 44.4921 48.6328 44.453 48.5938C44.4335 48.5547 44.3944 48.5352 44.3749 48.5156C44.6288 46.9531 46.7577 45.7422 48.1054 46.8555C49.0233 47.5977 48.4569 49.1406 47.6366 49.6875Z" fill="black"/>
<path d="M84.7071 33.2422C82.3634 28.8476 78.3986 25.332 74.3165 22.5781C69.9611 19.6289 65.1368 17.3242 60.1368 15.7422C54.4728 13.9453 48.4767 12.9687 42.5392 13.6914C37.3634 14.3164 32.3829 16.5429 28.0861 19.3945C23.8673 22.207 20.0782 25.9179 17.5196 30.3125C15.0001 34.6289 13.965 39.6289 13.4962 44.5508C13.4962 44.5898 13.4962 44.6289 13.4962 44.6484C13.379 44.8437 13.3009 45.0586 13.2423 45.2929C13.1837 45.4883 13.1837 45.6445 13.2228 45.8008C11.4845 53.7695 11.8946 62.3828 15.2736 69.8633C18.5939 77.1875 24.8439 82.7539 32.8712 84.2187C38.5548 85.2539 44.59 84.6484 50.2345 83.6328C55.4689 82.6953 60.7814 81.5429 65.6642 79.414C70.1759 77.4414 74.4142 74.6094 77.6564 70.8789C80.6056 67.4804 82.9689 63.5351 84.6876 59.3945C88.1056 51.1328 89.0236 41.3867 84.7071 33.2422ZM72.129 26.8164C73.1251 28.6719 73.0861 30.8008 72.6954 32.8125C71.9142 36.8554 69.629 40.8984 66.0353 43.0664C63.4962 44.5898 60.6056 44.4726 57.8907 43.6133C55.4298 42.832 52.5978 41.0547 52.5392 38.2031C52.5392 37.7539 52.2853 37.4609 51.9728 37.3437C51.0157 32.7929 51.797 27.8125 55.2345 24.4336C58.6134 21.0937 63.672 20.7226 67.8126 22.7148C69.6486 23.6133 71.1525 25.0195 72.129 26.8164ZM22.754 28.5742C25.0978 24.4531 29.8634 22.7344 34.4142 23.5351C36.4259 23.8867 38.2618 24.8437 39.6876 26.3086C41.1525 27.8125 41.6798 29.9023 41.8556 31.9336C42.2071 36.0351 41.0743 40.5469 38.2032 43.6133C36.172 45.7812 33.3595 46.4258 30.5079 46.3281C27.9298 46.25 24.7267 45.2929 23.8868 42.5781C23.7501 42.1484 23.4376 41.9336 23.1056 41.914C20.9767 37.7539 20.3712 32.7539 22.754 28.5742ZM30.6446 79.3554C30.3126 79.0429 29.9415 79.0234 29.629 79.1797C25.6642 76.7187 22.5978 72.7344 22.5001 67.9297C22.4025 63.1836 25.6251 59.2578 29.922 57.6367C31.8361 56.914 33.9064 56.7969 35.879 57.3242C37.9103 57.8711 39.4337 59.375 40.6251 61.0351C43.0275 64.3945 44.3751 68.8281 43.4571 72.9297C42.8126 75.8203 40.7423 77.832 38.2228 79.2187C35.9962 80.4492 32.754 81.289 30.6446 79.3554ZM74.1798 68.2812C72.3048 71.9531 68.9845 75.1953 64.9415 76.289C62.0704 77.0508 59.3361 76.1328 56.9532 74.5508C54.8048 73.125 52.5782 70.625 53.3009 67.8711C53.4181 67.4414 53.2618 67.0898 52.9884 66.8945C53.34 62.2461 55.4689 57.6953 59.6876 55.3906C63.8673 53.125 68.8282 54.1601 72.2462 57.2265C73.7696 58.5937 74.8243 60.3711 75.2736 62.3633C75.7423 64.414 75.0978 66.4648 74.1798 68.2812ZM79.9415 64.1406C78.6915 66.2304 77.2853 68.164 75.6642 69.9023C75.84 69.6094 75.9962 69.2969 76.1525 69.0039C78.1056 65.1367 77.8907 60.8398 75.2345 57.3633C71.7189 52.7539 65.5079 50.8594 60.0782 52.9297C53.6329 55.3711 50.6642 62.5 50.879 69.0039C50.879 69.2578 50.9767 69.4726 51.0939 69.6094C51.4064 72.5195 53.8087 74.9414 56.1915 76.5429C58.0275 77.7734 60.0587 78.457 62.129 78.5937C60.2931 79.2383 58.4181 79.7656 56.5236 80.1953C50.7423 81.5039 44.9611 82.6367 39.004 82.6367C37.715 82.6367 36.465 82.5781 35.215 82.4414C36.7775 82.1679 38.3204 81.543 39.6486 80.8008C43.1642 78.8672 45.4298 75.5859 45.7814 71.5625C46.172 67.3437 44.6095 63.0273 42.1681 59.6289C39.6486 56.1133 35.7228 54.3164 31.4064 55.0781C25.7032 56.0742 21.1525 60.7226 20.4884 66.4844C19.8243 72.1484 23.0861 77.1484 27.5392 80.3125C26.9532 80.039 26.3868 79.7265 25.84 79.375C20.7228 76.2304 17.422 70.8203 15.7032 65.2148C13.8478 59.2187 13.8673 52.6367 15.1759 46.5039C15.3126 46.3672 15.4103 46.1719 15.4298 45.8984C15.84 40.8984 16.7775 35.9375 19.2189 31.5039C19.3165 31.3086 19.4337 31.1328 19.5509 30.9375C18.3986 35.5859 19.7462 40.7812 22.4025 44.7851C22.5392 45 22.715 45.1367 22.9103 45.1953C24.7071 47.5 28.0275 48.3008 30.8986 48.3984C34.9025 48.5351 38.5353 46.875 40.8986 43.6133C43.379 40.1758 44.2579 35.6836 43.9064 31.5039C43.5353 27.1875 41.0743 23.6523 36.9923 22.0898C34.1603 20.9961 31.0743 20.957 28.2814 21.7969C28.8478 21.3867 29.4337 20.9961 30.0196 20.625C34.5704 17.6953 39.7657 15.8398 45.1954 15.5664C51.0548 15.2734 57.2657 16.6406 62.6954 18.8476C63.2228 19.0625 63.7306 19.2773 64.2579 19.5117C60.9962 19.1211 57.6173 19.9414 54.8829 21.9922C49.3751 26.1328 48.4767 33.789 50.4884 39.9804C50.5665 40.2344 50.7032 40.3906 50.8595 40.5078C51.9532 43.2031 54.9415 44.8828 57.6759 45.7422C61.4845 46.9531 65.4493 46.3281 68.5939 43.8281C71.9142 41.1914 73.9845 37.0898 74.7657 32.9883C75.3907 29.6679 74.6681 26.4453 72.6564 23.9648C77.9884 27.4414 82.5196 32.0117 84.4532 38.1054C87.2462 46.7969 84.4532 56.5625 79.9415 64.1406Z" fill="black"/>
</svg>
